<svg width="34" height="46" fill="none" xmlns="http://www.w3.org/2000/svg"><path d="M25.177 43.36c-1.944 0-3.42-.54-4.428-1.62-.984-1.08-1.476-2.628-1.476-4.644v-2.052h3.744v2.232c0 1.656.684 2.484 2.052 2.484.672 0 1.176-.204 1.512-.612.36-.432.54-1.176.54-2.232v-2.052c0-1.152-.204-1.968-.612-2.448-.408-.504-1.068-.756-1.98-.756h-1.332v-3.6h1.44c.792 0 1.38-.204 1.764-.612.408-.408.612-1.092.612-2.052V23.56c0-.864-.18-1.5-.54-1.908-.36-.408-.84-.612-1.44-.612-1.272 0-1.908.78-1.908 2.34v1.656h-3.744v-1.332c0-2.016.492-3.564 1.476-4.644 1.008-1.08 2.448-1.62 4.32-1.62 1.896 0 3.336.54 4.32 1.62.984 1.056 1.476 2.592 1.476 4.608v.9c0 1.368-.228 2.472-.684 3.312-.456.816-1.164 1.404-2.124 1.764v.072c1.032.384 1.776 1.008 2.232 1.872.456.864.684 1.968.684 3.312v2.232c0 2.016-.504 3.564-1.512 4.644-.984 1.056-2.448 1.584-4.392 1.584Z" fill="#000"/><path fill="#333" d="m17.508 1 .927.375-17.34 42.918-.927-.375z"/></svg>