<svg width="33" height="46" fill="none" xmlns="http://www.w3.org/2000/svg"><path d="M19.406 40.264c0-1.8.288-3.336.864-4.608.576-1.296 1.608-2.724 3.096-4.284 1.464-1.56 2.472-2.892 3.024-3.996a7.376 7.376 0 0 0 .864-3.456c0-1.08-.18-1.824-.54-2.232-.336-.432-.84-.648-1.512-.648-1.368 0-2.052.828-2.052 2.484v2.7h-3.744v-2.448c0-2.04.504-3.6 1.512-4.68 1.008-1.104 2.472-1.656 4.392-1.656 1.92 0 3.384.552 4.392 1.656 1.008 1.08 1.512 2.64 1.512 4.68 0 1.536-.372 3.036-1.116 4.5-.72 1.464-1.98 3.144-3.78 5.04-1.176 1.248-1.968 2.268-2.376 3.06a5.214 5.214 0 0 0-.612 2.484v.54h7.524V43H19.406v-2.736Z" fill="#000"/><path fill="#333" d="m17.426 1 .927.375-17.34 42.918-.927-.375z"/></svg>